<mxfile host="app.diagrams.net" modified="2023-10-23T06:19:30.433Z" agent="Mozilla/5.0 (Windows NT 10.0; Win64; x64) AppleWebKit/537.36 (KHTML, like Gecko) Chrome/118.0.0.0 Safari/537.36" version="22.0.6" etag="rdN6XL0F6Doj3ZW2e8fX" type="github">
  <diagram name="Page-1" id="7K1qDGdiY8pkq3vLFKJa">
    <mxGraphModel>
      <root>
        <mxCell id="0" />
        <mxCell id="1" parent="0" />
      </root>
    </mxGraphModel>
  </diagram>
</mxfile>
